grf
version=1
nRows=17
nColumns=37
inDegrees=no
endheader
time	ground_force_1_vx	ground_force_1_vy	ground_force_1_vz	ground_force_1_px	ground_force_1_py	ground_force_1_pz	ground_moment_1_mx	ground_moment_1_my	ground_moment_1_mz	ground_force_2_vx	ground_force_2_vy	ground_force_2_vz	ground_force_2_px	ground_force_2_py	ground_force_2_pz	ground_moment_2_mx	ground_moment_2_my	ground_moment_2_mz	ground_force_3_vx	ground_force_3_vy	ground_force_3_vz	ground_force_3_px	ground_force_3_py	ground_force_3_pz	ground_moment_3_mx	ground_moment_3_my	ground_moment_3_mz	ground_force_4_vx	ground_force_4_vy	ground_force_4_vz	ground_force_4_px	ground_force_4_py	ground_force_4_pz	ground_moment_4_mx	ground_moment_4_my	ground_moment_4_mz
      0.00000000	      0.00000000	     -0.00000000	      0.00000000	      0.00000000	      0.00000000	      0.00000000	      0.00000000	      0.00000000	      0.00000000	      3.09607744	     14.46539211	   -280.32080078	   -324.24640784	  -1012.58950839	      0.00000000	      0.00000000	      0.00000000	   1619.36940413	     -4.66204262	    -21.82935674	   -341.06616211	   -283.46838182	   -807.60647872	      0.00000000	      0.00000000	     -0.00000000	  -2311.75882319	      0.00000000	     -0.00000000	      0.00000000	      0.00000000	      0.00000000	      0.00000000	      0.00000000	      0.00000000	      0.00000000
      0.01000000	      0.00000000	     -0.00000000	      0.00000000	      0.00000000	      0.00000000	      0.00000000	      0.00000000	      0.00000000	      0.00000000	      2.76552582	     13.91072273	   -279.40496826	   -324.32638767	  -1015.01926178	      0.00000000	      0.00000000	      0.00000000	   1501.35074316	     -4.54700380	    -22.44503363	   -344.61267090	   -283.86207630	   -807.18302824	      0.00000000	      0.00000000	      0.00000000	  -2358.37136813	      0.00000000	     -0.00000000	      0.00000000	      0.00000000	      0.00000000	      0.00000000	      0.00000000	      0.00000000	      0.00000000
      0.02000000	      0.00000000	     -0.00000000	      0.00000000	      0.00000000	      0.00000000	      0.00000000	      0.00000000	      0.00000000	      0.00000000	      2.66668844	     14.03921318	   -276.14862061	   -324.05240540	  -1015.03909452	      0.00000000	      0.00000000	      0.00000000	   1495.63682592	     -4.55015671	    -23.16607245	   -347.75500488	   -284.34114081	   -807.38279818	      0.00000000	     -0.00000000	     -0.00000000	  -2265.85336701	      0.00000000	     -0.00000000	      0.00000000	      0.00000000	      0.00000000	      0.00000000	      0.00000000	      0.00000000	      0.00000000
      0.03000000	      0.00000000	     -0.00000000	      0.00000000	      0.00000000	      0.00000000	      0.00000000	      0.00000000	      0.00000000	      0.00000000	      2.53382874	     13.95882034	   -273.04489136	   -322.81274441	  -1015.11738819	      0.00000000	      0.00000000	      0.00000000	   1604.41780436	     -4.55494326	    -23.76915510	   -351.63766479	   -285.10571980	   -806.81806841	      0.00000000	      0.00000000	     -0.00000000	  -2415.11282941	      0.00000000	     -0.00000000	      0.00000000	      0.00000000	      0.00000000	      0.00000000	      0.00000000	      0.00000000	      0.00000000
      0.04000000	      0.00000000	     -0.00000000	      0.00000000	      0.00000000	      0.00000000	      0.00000000	      0.00000000	      0.00000000	      0.00000000	      2.23928547	     13.95809174	   -269.61782837	   -323.41592041	  -1013.92685377	      0.00000000	      0.00000000	      0.00000000	   1598.28885058	     -4.47204278	    -24.35079535	   -354.63531494	   -284.86010129	   -806.82294110	      0.00000000	      0.00000000	     -0.00000000	  -2321.84420108	      0.00000000	     -0.00000000	      0.00000000	      0.00000000	      0.00000000	      0.00000000	      0.00000000	      0.00000000	      0.00000000
      0.05000000	      0.00000000	     -0.00000000	      0.00000000	      0.00000000	      0.00000000	      0.00000000	      0.00000000	      0.00000000	      0.00000000	      1.93656719	     14.02028942	   -265.87261963	   -323.07065495	  -1014.39305477	      0.00000000	      0.00000000	      0.00000000	   1641.18311631	     -4.04441862	    -25.10945857	   -357.42807007	   -285.56126646	   -807.18908892	      0.00000000	      0.00000000	     -0.00000000	  -2491.23770675	      0.00000000	     -0.00000000	      0.00000000	      0.00000000	      0.00000000	      0.00000000	      0.00000000	      0.00000000	      0.00000000
      0.06000000	      0.00000000	     -0.00000000	      0.00000000	      0.00000000	      0.00000000	      0.00000000	      0.00000000	      0.00000000	      0.00000000	      1.59748197	     13.85045528	   -262.87265015	   -323.30806469	  -1015.28732834	      0.00000000	      0.00000000	      0.00000000	   1533.69054481	     -4.43554152	    -26.05759773	   -361.61740112	   -286.30312917	   -805.99687431	      0.00000000	      0.00000000	     -0.00000000	  -2345.44855116	      0.00000000	     -0.00000000	      0.00000000	      0.00000000	      0.00000000	      0.00000000	      0.00000000	      0.00000000	      0.00000000
      0.07000000	      0.00000000	     -0.00000000	      0.00000000	      0.00000000	      0.00000000	      0.00000000	      0.00000000	      0.00000000	      0.00000000	      1.65196764	     13.36956024	   -259.09530640	   -322.60897911	  -1016.51491484	      0.00000000	      0.00000000	      0.00000000	   1544.09462365	     -4.14295808	    -26.35551226	   -363.60775757	   -286.29728639	   -806.94843271	      0.00000000	      0.00000000	     -0.00000000	  -2248.21086145	      0.00000000	     -0.00000000	      0.00000000	      0.00000000	      0.00000000	      0.00000000	      0.00000000	      0.00000000	      0.00000000
      0.08000000	      0.00000000	     -0.00000000	      0.00000000	      0.00000000	      0.00000000	      0.00000000	      0.00000000	      0.00000000	      0.00000000	      1.42736816	     13.25328350	   -256.02496338	   -322.61308080	  -1016.46075310	      0.00000000	      0.00000000	      0.00000000	   1485.55687413	     -3.84110951	    -27.25662770	   -366.60919189	   -287.17148891	   -806.88738476	      0.00000000	      0.00000000	     -0.00000000	  -2219.51795804	      0.00000000	     -0.00000000	      0.00000000	      0.00000000	      0.00000000	      0.00000000	      0.00000000	      0.00000000	      0.00000000
      0.09000000	      0.00000000	     -0.00000000	      0.00000000	      0.00000000	      0.00000000	      0.00000000	      0.00000000	      0.00000000	      0.00000000	      1.78421021	     13.15668106	   -253.44601440	   -322.60806638	  -1016.08991984	      0.00000000	      0.00000000	      0.00000000	   1618.39273140	     -3.53053384	    -27.79479568	   -369.78601074	   -288.16085058	   -807.04953249	      0.00000000	      0.00000000	     -0.00000000	  -2418.58851789	      0.00000000	     -0.00000000	      0.00000000	      0.00000000	      0.00000000	      0.00000000	      0.00000000	      0.00000000	      0.00000000
      0.10000000	      0.00000000	     -0.00000000	      0.00000000	      0.00000000	      0.00000000	      0.00000000	      0.00000000	      0.00000000	      0.00000000	      1.74981403	     12.87612629	   -250.73008728	   -321.93134150	  -1017.22798082	      0.00000000	      0.00000000	      0.00000000	   1483.83105316	     -3.19359073	    -28.23627825	   -372.33401489	   -288.26675130	   -807.03484993	      0.00000000	      0.00000000	     -0.00000000	  -2341.06802187	      0.00000000	     -0.00000000	      0.00000000	      0.00000000	      0.00000000	      0.00000000	      0.00000000	      0.00000000	      0.00000000
      0.11000000	      0.00000000	     -0.00000000	      0.00000000	      0.00000000	      0.00000000	      0.00000000	      0.00000000	      0.00000000	      0.00000000	      1.68168235	     12.32748795	   -250.45729065	   -323.09284732	  -1017.84252419	      0.00000000	      0.00000000	      0.00000000	   1180.84610955	     -3.70701321	    -28.20138708	   -376.24798584	   -289.37431359	   -804.95534794	      0.00000000	      0.00000000	      0.00000000	  -2200.30458208	      0.00000000	     -0.00000000	      0.00000000	      0.00000000	      0.00000000	      0.00000000	      0.00000000	      0.00000000	      0.00000000
      0.12000000	      0.00000000	     -0.00000000	      0.00000000	      0.00000000	      0.00000000	      0.00000000	      0.00000000	      0.00000000	      0.00000000	      2.13466787	     12.36154175	   -247.41108704	   -322.62231570	  -1017.11123924	      0.00000000	      0.00000000	      0.00000000	   1469.75858063	     -3.62571208	    -29.09243361	   -377.81265259	   -289.14393670	   -805.76883989	      0.00000000	      0.00000000	     -0.00000000	  -2201.22040750	      0.00000000	     -0.00000000	      0.00000000	      0.00000000	      0.00000000	      0.00000000	      0.00000000	      0.00000000	      0.00000000
      0.13000000	      0.00000000	     -0.00000000	      0.00000000	      0.00000000	      0.00000000	      0.00000000	      0.00000000	      0.00000000	      0.00000000	      2.26403499	     12.09403992	   -244.99713135	   -323.85865786	  -1015.91938656	      0.00000000	      0.00000000	      0.00000000	   1411.30364938	     -3.84909909	    -29.17312588	   -377.99526978	   -289.27553560	   -806.42943643	      0.00000000	      0.00000000	      0.00000000	  -2127.32419015	      0.00000000	     -0.00000000	      0.00000000	      0.00000000	      0.00000000	      0.00000000	      0.00000000	      0.00000000	      0.00000000
      0.14000000	      0.00000000	     -0.00000000	      0.00000000	      0.00000000	      0.00000000	      0.00000000	      0.00000000	      0.00000000	      0.00000000	      2.08536029	     12.32781601	   -243.01025391	   -323.71098988	  -1014.59958608	      0.00000000	      0.00000000	      0.00000000	   1504.13648929	     -3.73292111	    -29.87982527	   -377.48440552	   -289.09046043	   -807.90303092	      0.00000000	      0.00000000	     -0.00000000	  -2076.81382742	      0.00000000	     -0.00000000	      0.00000000	      0.00000000	      0.00000000	      0.00000000	      0.00000000	      0.00000000	      0.00000000
      0.15000000	      0.00000000	     -0.00000000	      0.00000000	      0.00000000	      0.00000000	      0.00000000	      0.00000000	      0.00000000	      0.00000000	      2.13037205	     12.40638638	   -244.20030212	   -323.91201901	  -1018.44480896	      0.00000000	      0.00000000	      0.00000000	   1429.71558495	     -3.37101244	    -29.94105119	   -379.31274414	   -289.72598942	   -806.00249050	      0.00000000	      0.00000000	     -0.00000000	  -2139.58629265	      0.00000000	     -0.00000000	      0.00000000	      0.00000000	      0.00000000	      0.00000000	      0.00000000	      0.00000000	      0.00000000
      0.16000000	      0.00000000	     -0.00000000	      0.00000000	      0.00000000	      0.00000000	      0.00000000	      0.00000000	      0.00000000	      0.00000000	      2.16910028	     11.97149658	   -242.87675476	   -323.28252527	  -1015.87378643	      0.00000000	      0.00000000	      0.00000000	   1481.03279544	     -2.86616373	    -30.02937292	   -379.36904907	   -289.85383673	   -805.44079055	      0.00000000	      0.00000000	     -0.00000000	  -2115.93129896	      0.00000000	     -0.00000000	      0.00000000	      0.00000000	      0.00000000	      0.00000000	      0.00000000	      0.00000000	      0.00000000
